<?xml version="1.0" encoding="UTF-8" standalone="no"?>
<!DOCTYPE svg PUBLIC "-//W3C//DTD SVG 1.1//EN" "http://www.w3.org/Graphics/SVG/1.1/DTD/svg11.dtd">
<svg width="100%" height="100%" viewBox="0 0 511 354" version="1.1" xmlns="http://www.w3.org/2000/svg" xmlns:xlink="http://www.w3.org/1999/xlink" xml:space="preserve" xmlns:serif="http://www.serif.com/" style="fill-rule:evenodd;clip-rule:evenodd;stroke-linecap:round;">
    <g transform="matrix(1,0,0,1,-73.247917,-151.370417)">
        <g transform="matrix(4.166667,0,0,4.166667,137.344167,432.77625)">
            <path d="M0,0L90.587,0" style="fill:none;fill-rule:nonzero;stroke:rgb(29,29,27);stroke-width:0.47px;"/>
        </g>
        <g transform="matrix(0,4.166667,4.166667,0,578.197083,365.122083)">
            <path d="M1.405,-1.405C2.13,-1.405 2.825,-0.861 2.825,0.015C2.825,0.861 2.13,1.405 1.405,1.405C0.68,1.405 -0.015,0.74 -0.015,0.015C-0.015,-0.74 0.68,-1.405 1.405,-1.405" style="fill:rgb(248,199,203);fill-rule:nonzero;"/>
        </g>
        <g transform="matrix(4.166667,0,0,4.166667,95.660417,340.885)">
            <path d="M0,1.118L12.571,1.118L12.571,7.705C12.571,7.947 12.782,8.219 13.417,8.219C14.112,8.219 14.293,7.947 14.293,7.705L14.293,-10.546C14.293,-10.788 14.112,-11.06 13.417,-11.06C12.782,-11.06 12.571,-10.788 12.571,-10.546L12.571,-0.453L0,-0.453L0,-10.546C0,-10.788 -0.181,-11.06 -0.876,-11.06C-1.511,-11.06 -1.722,-10.788 -1.722,-10.546L-1.722,7.373C-1.722,12.661 -4.019,13.779 -5.046,14.293C-5.288,14.414 -5.379,14.535 -5.379,14.746C-5.379,15.079 -5.107,15.471 -4.835,15.471C-4.563,15.471 -4.382,15.381 -4.2,15.29C-2.81,14.686 0,13.084 0,7.162L0,1.118ZM29.281,-11.362C28.827,-11.362 28.646,-10.999 28.495,-10.697L20.125,7.222C20.125,7.222 20.034,7.373 20.034,7.615C20.034,7.947 20.336,8.219 20.759,8.219C21.364,8.219 21.575,8.008 21.817,7.464L23.237,4.382C24.446,3.445 26.44,2.417 29.281,2.417C32.363,2.417 34.357,3.566 35.536,4.533L36.986,7.645C37.168,8.008 37.44,8.219 37.893,8.219C38.407,8.219 38.618,7.857 38.618,7.615C38.618,7.373 38.527,7.222 38.527,7.222L30.036,-10.667C29.885,-10.999 29.734,-11.362 29.281,-11.362M29.281,0.906C27.226,0.906 25.624,1.39 24.355,1.994L29.311,-8.703L34.357,2.085C33.088,1.42 31.426,0.906 29.281,0.906M57.685,-6.134C57.685,-9.821 54.996,-11.03 50.494,-11.03L44.843,-11.03C44.541,-11.03 44.329,-10.848 44.329,-10.516L44.329,7.705C44.329,8.008 44.541,8.219 44.843,8.219L52.548,8.219C56.749,8.219 58.924,5.802 58.924,2.538C58.924,0.121 57.051,-1.662 54.996,-1.904C56.749,-2.629 57.685,-3.838 57.685,-6.134M46.052,-9.488L50.494,-9.488C54.089,-9.488 55.842,-8.854 55.842,-6.195C55.842,-3.959 54.996,-2.176 51.914,-2.176L46.052,-2.176L46.052,-9.488ZM57.111,2.659C57.111,5.107 55.842,6.678 52.125,6.678L46.052,6.678L46.052,-0.665L52.639,-0.665C55.631,-0.665 57.111,0.514 57.111,2.659M68.201,-10.546C68.201,-10.848 68.02,-11.03 67.325,-11.03C66.69,-11.03 66.479,-10.818 66.479,-10.546L66.479,7.705C66.479,7.947 66.69,8.219 67.325,8.219C68.02,8.219 68.201,7.947 68.201,7.705L68.201,-10.546ZM84.186,-9.458C90.109,-9.458 92.224,-12.117 92.828,-13.235C92.919,-13.417 93.01,-13.598 93.01,-13.81C93.01,-14.142 92.526,-14.353 92.133,-14.353C91.892,-14.353 91.771,-14.263 91.65,-14.021C91.136,-12.994 89.686,-11.03 84.398,-11.03L75.816,-11.03C75.816,-11.03 75.302,-10.909 75.302,-10.274C75.302,-9.609 75.816,-9.488 75.816,-9.488L81.648,-9.488L81.648,7.705C81.648,7.977 81.829,8.219 82.494,8.219C83.159,8.219 83.37,7.977 83.37,7.705L83.37,-9.488L84.186,-9.458ZM96.968,4.049C96.968,3.233 97.512,2.75 97.512,2.387C97.512,2.085 97.24,1.873 96.938,1.873C96.455,1.873 95.337,2.629 95.337,4.351C95.337,7.071 98.147,8.521 102.347,8.521C107.121,8.521 109.72,5.923 109.72,2.84C109.72,-3.475 97.694,-1.36 97.694,-6.406C97.694,-8.763 100.202,-9.881 102.77,-9.881C105.218,-9.881 106.729,-8.884 106.729,-7.585C106.729,-6.557 106.275,-6.436 106.275,-6.074C106.275,-5.862 106.426,-5.651 106.88,-5.651C107.424,-5.651 108.421,-6.467 108.421,-7.675C108.421,-9.67 106.124,-11.362 102.77,-11.362C98.721,-11.362 96.001,-9.216 96.001,-6.104C96.001,0.03 108.028,-2.055 108.028,3.082C108.028,5.409 105.731,6.98 102.287,6.98C98.993,6.98 96.968,5.892 96.968,4.049" style="fill:rgb(29,29,27);fill-rule:nonzero;"/>
        </g>
        <g transform="matrix(4.166667,0,0,4.166667,170.890833,230.69125)">
            <path d="M0,-7.76C0,-8.002 -0.181,-8.274 -0.876,-8.274C-1.511,-8.274 -1.722,-8.002 -1.722,-7.76L-1.722,3.33C-3.264,3.904 -4.593,4.508 -6.829,4.508C-9.216,4.508 -9.972,3.179 -9.972,3.179C-9.972,3.179 -10.214,2.786 -10.455,2.786C-10.909,2.786 -11.181,3.088 -11.181,3.451C-11.181,3.662 -11.06,3.874 -11.06,3.874C-11.06,3.874 -9.942,6.019 -6.859,6.019C-4.623,6.019 -3.203,5.445 -1.722,4.901L-1.722,10.491C-1.722,10.733 -1.511,11.005 -0.876,11.005C-0.181,11.005 0,10.733 0,10.491L0,4.357C0.876,4.116 1.843,3.934 3.082,3.934C7.464,3.934 10.576,5.868 12.571,8.89L12.571,10.491C12.571,10.733 12.782,11.005 13.417,11.005C14.112,11.005 14.293,10.733 14.293,10.491L14.293,-7.76C14.293,-8.002 14.112,-8.274 13.417,-8.274C12.782,-8.274 12.571,-8.002 12.571,-7.76L12.571,6.593C10.576,4.025 6.829,2.423 3.112,2.423C1.843,2.423 0.846,2.574 0,2.786L0,-7.76ZM31.91,9.706C27.679,9.706 24.053,6.442 24.053,1.426C24.053,-3.681 27.649,-7.005 31.91,-7.005C36.17,-7.005 39.766,-3.681 39.766,1.426C39.766,6.442 36.11,9.706 31.91,9.706M31.91,11.277C37.107,11.277 41.458,7.288 41.458,1.426C41.458,-4.496 36.865,-8.576 31.91,-8.576C26.954,-8.576 22.331,-4.496 22.331,1.426C22.331,7.288 26.682,11.277 31.91,11.277M52.397,9.434L52.397,-7.76C52.397,-8.062 52.215,-8.243 51.52,-8.243C50.886,-8.243 50.674,-8.032 50.674,-7.76L50.674,10.491C50.674,10.794 50.886,11.005 51.188,11.005L63.124,11.005C63.124,11.005 63.638,10.884 63.638,10.22C63.638,9.585 63.124,9.434 63.124,9.434L52.397,9.434ZM73.549,1.088L73.549,8.341C73.549,8.582 73.73,8.854 74.425,8.854C75.06,8.854 75.271,8.582 75.271,8.341L75.271,1.088L82.251,-9.337C82.251,-9.337 82.402,-9.609 82.402,-9.851C82.402,-10.122 82.131,-10.394 81.647,-10.394C81.194,-10.394 80.831,-10.213 80.559,-9.79L74.334,-0.543L67.928,-10.153C65.209,-14.232 61.069,-18.825 55.69,-18.825C50.795,-18.825 46.141,-15.622 40.611,-15.622C35.233,-15.622 33.269,-18.553 33.027,-18.825C33.027,-18.825 32.876,-19.037 32.543,-19.037C32.271,-19.037 31.818,-18.765 31.818,-18.463C31.818,-18.221 31.999,-17.979 31.999,-17.979C31.999,-17.979 34.659,-14.081 40.611,-14.081C46.323,-14.081 50.432,-17.314 55.811,-17.314C60.978,-17.314 64.393,-12.782 66.538,-9.518L73.549,1.088Z" style="fill:rgb(29,29,27);fill-rule:nonzero;"/>
        </g>
        <g transform="matrix(4.166667,0,0,4.166667,476.05375,483.953333)">
            <path d="M0,4.653C-1.185,4.653 -2.172,3.715 -2.172,2.34C-2.172,0.944 -1.199,-0.001 0,-0.001C1.199,-0.001 2.172,0.944 2.172,2.34C2.172,3.715 1.185,4.653 0,4.653M0,5.041C1.431,5.041 2.595,3.948 2.595,2.34C2.595,0.719 1.361,-0.388 0,-0.388C-1.361,-0.388 -2.595,0.719 -2.595,2.34C-2.595,3.948 -1.431,5.041 0,5.041M5.646,-0.156C5.646,-0.156 5.646,-0.318 5.435,-0.318C5.223,-0.318 5.223,-0.156 5.223,-0.156L5.223,4.808C5.223,4.808 5.223,4.97 5.435,4.97C5.646,4.97 5.646,4.808 5.646,4.808L5.646,-0.156ZM8.769,4.582L8.769,-0.156C8.769,-0.156 8.769,-0.318 8.557,-0.318C8.346,-0.318 8.346,-0.156 8.346,-0.156L8.346,4.829C8.346,4.914 8.402,4.97 8.487,4.97L11.434,4.97C11.434,4.97 11.596,4.97 11.596,4.773C11.596,4.582 11.434,4.582 11.434,4.582L8.769,4.582ZM13.903,3.751C13.903,3.426 14.051,3.37 14.051,3.278C14.051,3.208 13.995,3.165 13.889,3.165C13.72,3.165 13.516,3.335 13.516,3.751C13.516,4.639 14.291,5.041 15.391,5.041C16.547,5.041 17.372,4.427 17.372,3.483C17.372,2.481 16.435,2.242 15.56,1.974C14.566,1.671 14.101,1.508 14.101,0.853C14.101,0.282 14.644,-0.001 15.483,-0.001C16.244,-0.001 16.632,0.31 16.632,0.669C16.632,0.874 16.491,0.958 16.491,1.071C16.491,1.163 16.561,1.198 16.639,1.198C16.822,1.198 17.013,0.994 17.013,0.662C17.013,0.112 16.498,-0.388 15.483,-0.388C14.333,-0.388 13.713,0.169 13.713,0.944C13.713,1.917 14.573,2.094 15.412,2.369C16.209,2.629 16.977,2.792 16.977,3.546C16.977,4.216 16.301,4.653 15.377,4.653C14.481,4.653 13.903,4.336 13.903,3.751" style="fill:rgb(29,29,27);fill-rule:nonzero;"/>
        </g>
        <g transform="matrix(0,4.166667,4.166667,0,454.2275,501.325833)">
            <path d="M0.469,-0.469C0.711,-0.469 0.942,-0.288 0.942,0.005C0.942,0.286 0.711,0.469 0.469,0.469C0.227,0.469 -0.005,0.246 -0.005,0.005C-0.005,-0.247 0.227,-0.469 0.469,-0.469" style="fill:rgb(248,199,203);fill-rule:nonzero;"/>
        </g>
        <g transform="matrix(4.166667,0,0,4.166667,249.440417,499.371667)">
            <path d="M0,-2.749C0,-2.481 -0.07,-2.46 -0.07,-2.382C-0.07,-2.291 0,-2.234 0.106,-2.234C0.268,-2.234 0.416,-2.488 0.416,-2.805C0.416,-3.546 -0.303,-4.089 -1.326,-4.089C-2.651,-4.089 -3.963,-3.25 -3.963,-1.261C-3.963,0.452 -2.764,1.34 -1.318,1.34C-0.479,1.34 0.169,0.939 0.501,0.558C0.543,0.508 0.628,0.396 0.628,0.304C0.628,0.219 0.564,0.142 0.458,0.142C0.381,0.142 0.36,0.163 0.31,0.212C0.035,0.523 -0.536,0.953 -1.29,0.953C-2.517,0.953 -3.539,0.262 -3.539,-1.261C-3.539,-3.08 -2.447,-3.701 -1.326,-3.701C-0.571,-3.701 0.021,-3.341 0,-2.749M5.717,0.953C4.532,0.953 3.545,0.015 3.545,-1.36C3.545,-2.756 4.518,-3.701 5.717,-3.701C6.916,-3.701 7.889,-2.756 7.889,-1.36C7.889,0.015 6.901,0.953 5.717,0.953M5.717,1.34C7.148,1.34 8.312,0.248 8.312,-1.36C8.312,-2.982 7.078,-4.089 5.717,-4.089C4.356,-4.089 3.122,-2.982 3.122,-1.36C3.122,0.248 4.286,1.34 5.717,1.34M14.635,0.085L15.107,1.136C15.135,1.199 15.206,1.27 15.354,1.27C15.537,1.27 15.537,1.178 15.537,1.136C15.537,1.094 15.516,1.037 15.516,1.037L13.26,-3.87C13.218,-3.969 13.147,-4.06 12.992,-4.06C12.823,-4.06 12.781,-3.99 12.717,-3.856L10.468,1.037C10.468,1.037 10.447,1.08 10.447,1.108C10.447,1.192 10.503,1.27 10.63,1.27C10.806,1.27 10.842,1.206 10.877,1.136L11.349,0.085L14.635,0.085ZM12.992,-3.553L14.459,-0.302L11.526,-0.302L12.992,-3.553ZM21.434,-2.749C21.434,-2.481 21.363,-2.46 21.363,-2.382C21.363,-2.291 21.434,-2.234 21.539,-2.234C21.702,-2.234 21.85,-2.488 21.85,-2.805C21.85,-3.546 21.13,-4.089 20.108,-4.089C18.783,-4.089 17.471,-3.25 17.471,-1.261C17.471,0.452 18.67,1.34 20.115,1.34C20.954,1.34 21.603,0.939 21.934,0.558C21.977,0.508 22.061,0.396 22.061,0.304C22.061,0.219 21.998,0.142 21.892,0.142C21.814,0.142 21.793,0.163 21.744,0.212C21.469,0.523 20.898,0.953 20.143,0.953C18.917,0.953 17.894,0.262 17.894,-1.261C17.894,-3.08 18.987,-3.701 20.108,-3.701C20.863,-3.701 21.455,-3.341 21.434,-2.749M28.504,-0.655L28.504,1.108C28.504,1.108 28.504,1.27 28.716,1.27C28.927,1.27 28.927,1.108 28.927,1.108L28.927,-3.856C28.927,-3.856 28.927,-4.018 28.716,-4.018C28.504,-4.018 28.504,-3.856 28.504,-3.856L28.504,-1.043L25.049,-1.043L25.049,-3.856C25.049,-3.856 25.049,-4.018 24.838,-4.018C24.626,-4.018 24.626,-3.856 24.626,-3.856L24.626,1.108C24.626,1.108 24.626,1.27 24.838,1.27C25.049,1.27 25.049,1.108 25.049,1.108L25.049,-0.655L28.504,-0.655ZM32.05,-3.856C32.05,-3.856 32.05,-4.018 31.838,-4.018C31.627,-4.018 31.627,-3.856 31.627,-3.856L31.627,1.108C31.627,1.108 31.627,1.27 31.838,1.27C32.05,1.27 32.05,1.108 32.05,1.108L32.05,-3.856ZM34.897,-4.018C34.77,-4.018 34.749,-3.905 34.749,-3.793L34.749,1.108C34.749,1.228 34.791,1.27 34.918,1.27C35.066,1.27 35.137,1.228 35.137,1.108L35.137,-3.2L38.704,1.129C38.768,1.206 38.803,1.27 38.909,1.27C39.021,1.27 39.05,1.206 39.05,1.03L39.05,-3.856C39.05,-3.941 39.036,-4.018 38.866,-4.018C38.683,-4.018 38.662,-3.941 38.662,-3.856L38.662,0.466L35.108,-3.891C35.01,-4.011 34.953,-4.018 34.897,-4.018M42.101,-1.261C42.101,-3.08 43.194,-3.694 44.315,-3.694C45.07,-3.694 45.662,-3.341 45.641,-2.749C45.641,-2.481 45.57,-2.453 45.57,-2.375C45.57,-2.262 45.662,-2.234 45.754,-2.234C45.909,-2.234 46.057,-2.488 46.057,-2.805C46.057,-3.546 45.338,-4.089 44.315,-4.089C42.99,-4.089 41.678,-3.25 41.678,-1.261C41.678,0.452 42.835,1.34 44.252,1.34C45.394,1.34 46.304,0.544 46.304,0.05L46.304,-0.965C46.304,-1.05 46.247,-1.106 46.163,-1.106L44.738,-1.106C44.738,-1.106 44.576,-1.092 44.576,-0.916C44.576,-0.732 44.738,-0.718 44.738,-0.718L45.881,-0.718L45.881,0.05C45.881,0.353 45.197,0.946 44.28,0.946C43.074,0.946 42.101,0.262 42.101,-1.261" style="fill:rgb(29,29,27);fill-rule:nonzero;"/>
        </g>
        <g transform="matrix(0,4.166667,4.166667,0,221.914583,501.325833)">
            <path d="M0.469,-0.469C0.711,-0.469 0.942,-0.288 0.942,0.005C0.942,0.286 0.711,0.469 0.469,0.469C0.227,0.469 -0.005,0.246 -0.005,0.005C-0.005,-0.247 0.227,-0.469 0.469,-0.469" style="fill:rgb(248,199,203);fill-rule:nonzero;"/>
        </g>
        <g transform="matrix(4.166667,0,0,4.166667,110.834583,483.307917)">
            <path d="M0,4.963C0,4.963 0,5.125 0.212,5.125C0.423,5.125 0.423,4.963 0.423,4.963L0.423,3.003L2.376,0.105C2.376,0.105 2.404,0.049 2.404,0.02C2.404,-0.099 2.341,-0.163 2.228,-0.163C2.129,-0.163 2.108,-0.135 2.08,-0.092L0.212,2.643L-1.608,-0.092C-1.608,-0.092 -1.636,-0.163 -1.756,-0.163C-1.89,-0.163 -1.96,-0.092 -1.96,0.035C-1.96,0.063 -1.932,0.119 -1.932,0.119L0,3.003L0,4.963ZM6.848,4.808C5.664,4.808 4.677,3.87 4.677,2.495C4.677,1.099 5.65,0.154 6.848,0.154C8.047,0.154 9.02,1.099 9.02,2.495C9.02,3.87 8.033,4.808 6.848,4.808M6.848,5.196C8.279,5.196 9.443,4.103 9.443,2.495C9.443,0.874 8.209,-0.233 6.848,-0.233C5.487,-0.233 4.253,0.874 4.253,2.495C4.253,4.103 5.417,5.196 6.848,5.196M12.223,2.594C12.223,0.775 13.315,0.161 14.437,0.161C15.191,0.161 15.783,0.514 15.762,1.106C15.762,1.374 15.692,1.402 15.692,1.48C15.692,1.593 15.783,1.621 15.875,1.621C16.03,1.621 16.178,1.367 16.178,1.05C16.178,0.31 15.459,-0.233 14.437,-0.233C13.111,-0.233 11.8,0.606 11.8,2.594C11.8,4.307 12.956,5.196 14.373,5.196C15.515,5.196 16.425,4.399 16.425,3.905L16.425,2.89C16.425,2.805 16.368,2.749 16.284,2.749L14.86,2.749C14.86,2.749 14.697,2.763 14.697,2.939C14.697,3.123 14.86,3.137 14.86,3.137L16.002,3.137L16.002,3.905C16.002,4.209 15.318,4.801 14.401,4.801C13.196,4.801 12.223,4.117 12.223,2.594M22.812,3.941L23.284,4.991C23.312,5.055 23.383,5.125 23.531,5.125C23.714,5.125 23.714,5.034 23.714,4.991C23.714,4.949 23.693,4.893 23.693,4.893L21.437,-0.015C21.394,-0.114 21.324,-0.205 21.169,-0.205C21,-0.205 20.957,-0.135 20.894,-0.001L18.645,4.893C18.645,4.893 18.623,4.935 18.623,4.963C18.623,5.048 18.68,5.125 18.807,5.125C18.983,5.125 19.018,5.062 19.054,4.991L19.526,3.941L22.812,3.941ZM21.169,0.302L22.635,3.553L19.702,3.553L21.169,0.302Z" style="fill:rgb(29,29,27);fill-rule:nonzero;"/>
        </g>
    </g>
</svg>
